<?xml version="1.0" encoding="utf-8"?><!-- Uploaded to: SVG Repo, www.svgrepo.com, Generator: SVG Repo Mixer Tools -->
<svg width="800px" height="800px" viewBox="0 0 24 24" fill="none" xmlns="http://www.w3.org/2000/svg"><path d="m21 7-1 11.6c0 1.33-1.07 2.4-2.4 2.4H6.4C5.07 21 4 19.93 4 18.6L3 7" fill="#000000" fill-opacity=".16"/><path d="m21 7-1 11.6c0 1.33-1.07 2.4-2.4 2.4H6.4C5.07 21 4 19.93 4 18.6L3 7" stroke="#000000" stroke-width="1.5" stroke-miterlimit="10" stroke-linecap="round"/><path d="M21.4 3H2.6A1.6 1.6 0 0 0 1 4.6v.8A1.6 1.6 0 0 0 2.6 7h18.8A1.6 1.6 0 0 0 23 5.4v-.8A1.6 1.6 0 0 0 21.4 3Z" fill="#ffffff" stroke="#000000" stroke-width="1.5" stroke-miterlimit="10"/><path d="M16 7v2.2a.8.8 0 0 1-.8.8H8.8a.8.8 0 0 1-.8-.8V7" stroke="#000000" stroke-width="1.5" stroke-miterlimit="10" stroke-linecap="round"/></svg>