<?xml version="1.0" encoding="UTF-8"?>
<svg width="433px" height="433px" viewBox="0 0 433 433" version="1.1" xmlns="http://www.w3.org/2000/svg" xmlns:xlink="http://www.w3.org/1999/xlink">
    <!-- Generator: Sketch 53.2 (72643) - https://sketchapp.com -->
    <title>Artboard</title>
    <desc>Created with Sketch.</desc>
    <defs>
        <rect id="path-1" x="0" y="0" width="433" height="433" rx="39.3636364"></rect>
    </defs>
    <g id="Artboard" stroke="none" stroke-width="1" fill="none" fill-rule="evenodd">
        <g id="Group-45">
            <g id="Rectangle-Copy-31">
                <g id="Group-44">
                    <mask id="mask-2" fill="white">
                        <use xlink:href="#path-1"></use>
                    </mask>
                    <g id="Mask"></g>
                    <g id="Group-46" mask="url(#mask-2)" fill="#FFFFFF">
                        <g transform="translate(0.000000, 71.000000)">
                            <path d="M474.823864,283.720442 L474.823864,150.841356 L295.227273,150.841356 C293.868527,150.841356 292.767045,151.942837 292.767045,153.301583 L292.767045,281.260215 C292.767045,282.618961 293.868527,283.720442 295.227273,283.720442 L474.823864,283.720442 Z" id="Rectangle-Copy-30" stroke="#FFFFFF" stroke-width="14.7613636" fill-rule="evenodd" opacity="0.699999988"></path>
                            <path d="M0,0.741573034 L137.772727,0.741573034 C143.207711,0.741573034 147.613636,5.14749811 147.613636,10.5824821 L147.613636,138.541113 C147.613636,143.976097 143.207711,148.382022 137.772727,148.382022 L0,148.382022 L0,0.741573034 Z" id="Rectangle" stroke="none" fill-rule="evenodd"></path>
                            <path d="M255.863636,211.842823 L211.753599,211.842823 L211.753599,76.2722495 C211.753599,72.6114959 208.783092,69.6404494 205.123003,69.6404494 L137.772727,69.6404494 L137.776043,82.9040496 L198.492407,82.9040496 L198.492407,218.474623 C198.492407,222.135377 201.462914,225.106423 205.123003,225.106423 L255.863636,225.106423 L255.863636,211.842823 Z" id="Path-Copy-3" stroke="none" fill-rule="nonzero"></path>
                            <path d="M266.352148,243.756114 L266.352148,243.756114 C263.244228,246.393641 258.586622,246.012311 255.949096,242.904391 L237.618591,221.304708 C236.351697,219.811867 236.351643,217.621369 237.618462,216.128465 L255.949138,194.526398 C258.58651,191.418347 263.244096,191.036785 266.352148,193.674157 L266.352148,193.674157 C269.4602,196.311529 269.841761,200.969115 267.204389,204.077167 L254.782309,218.716159 L267.20387,233.353061 C269.841397,236.460982 269.460068,241.118587 266.352148,243.756114 Z" id="Stroke-2" stroke="none" fill-rule="nonzero" transform="translate(253.701005, 218.715276) rotate(180.000000) translate(-253.701005, -218.715276) "></path>
                        </g>
                    </g>
                </g>
            </g>
            <g id="noun_Database-Dependecy_1592670-Copy" transform="translate(137.772727, 142.640449)"></g>
        </g>
    </g>
</svg>