<?xml version="1.0" encoding="UTF-8"?>
<svg width="88px" height="88px" viewBox="0 0 88 88" version="1.1" xmlns="http://www.w3.org/2000/svg" xmlns:xlink="http://www.w3.org/1999/xlink">
    <!-- Generator: Sketch 53.2 (72643) - https://sketchapp.com -->
    <title>single-select-store</title>
    <desc>Created with Sketch.</desc>
    <g id="single-select-store" stroke="none" stroke-width="1" fill="none" fill-rule="evenodd">
        <path d="M21,35 L68,35 C69.1045695,35 70,35.8954305 70,37 L70,52 C70,53.1045695 69.1045695,54 68,54 L21,54 C19.8954305,54 19,53.1045695 19,52 L19,37 C19,35.8954305 19.8954305,35 21,35 Z M61.7438483,42.3620889 L60,43.9933251 L58.2561517,42.3620889 C57.7370929,41.8765493 56.8988975,41.8797225 56.3839899,42.3691766 C55.8690823,42.8586306 55.8724475,43.6490191 56.3915063,44.1345588 L59.0676773,46.6379112 C59.5837914,47.1206963 60.4162086,47.1206963 60.9323227,46.6379112 L63.6084937,44.1345588 C64.1275525,43.6490191 64.1309177,42.8586306 63.6160101,42.3691766 C63.1011025,41.8797225 62.2629071,41.8765493 61.7438483,42.3620889 Z" id="Combined-Shape" fill="#FFFFFF"></path>
    </g>
</svg>