<svg width="18" height="24" viewBox="0 0 18 24" fill="none" xmlns="http://www.w3.org/2000/svg">
<path d="M0 2C0 0.89543 0.895431 0 2 0H11.0801C11.664 0 12.2187 0.255125 12.5986 0.698417L17.5185 6.43827C17.8292 6.80075 18 7.26243 18 7.73985V22C18 23.1046 17.1046 24 16 24H2C0.89543 24 0 23.1046 0 22V2Z" fill="#5559DF"/>
<path d="M5 8C5 7.44772 5.44772 7 6 7H9.54007C9.83199 7 10.1093 7.12756 10.2993 7.34921L12.2593 9.6358C12.4146 9.81704 12.5 10.0479 12.5 10.2866V16C12.5 16.5523 12.0523 17 11.5 17H6C5.44772 17 5 16.5523 5 16V8Z" fill="white"/>
<path fill-rule="evenodd" clip-rule="evenodd" d="M9.98018 14.7005C9.6695 15.0267 9.24532 15.2125 8.80015 15.2125C8.35498 15.2125 7.93079 15.0267 7.62011 14.7005C7.30984 14.3747 7.13765 13.9355 7.13765 13.48L7.13765 12.0144C7.13765 11.8694 7.25517 11.7519 7.40015 11.7519C7.54512 11.7519 7.66265 11.8694 7.66265 12.0144L7.66265 13.48C7.66265 13.8043 7.78545 14.1128 8.00028 14.3384C8.2147 14.5636 8.50271 14.6875 8.80015 14.6875C9.09758 14.6875 9.38559 14.5636 9.60001 14.3384C9.81485 14.1128 9.93765 13.8043 9.93765 13.48L9.93765 11.03C9.93765 10.8357 9.86401 10.6518 9.73669 10.5181C9.60979 10.3848 9.44048 10.3125 9.26681 10.3125C9.09314 10.3125 8.92384 10.3848 8.79693 10.5181C8.66961 10.6518 8.59598 10.8357 8.59598 11.03L8.59598 13.48C8.59598 13.5444 8.62045 13.6037 8.66025 13.6454C8.69964 13.6868 8.75025 13.7075 8.80015 13.7075C8.85005 13.7075 8.90066 13.6868 8.94004 13.6454C8.97984 13.6037 9.00431 13.5444 9.00431 13.48L9.00431 12.0183C9.00431 11.8733 9.12184 11.7558 9.26681 11.7558C9.41179 11.7558 9.52931 11.8733 9.52931 12.0183L9.52931 13.48C9.52931 13.6756 9.45545 13.8655 9.32022 14.0075C9.18457 14.1499 8.99778 14.2325 8.80015 14.2325C8.60251 14.2325 8.41572 14.1499 8.28008 14.0075C8.14484 13.8655 8.07098 13.6756 8.07098 13.48L8.07098 11.03C8.07098 10.7045 8.19401 10.3899 8.41676 10.156C8.63992 9.92168 8.94541 9.7875 9.26681 9.7875C9.58821 9.7875 9.8937 9.92168 10.1169 10.156C10.3396 10.3899 10.4626 10.7045 10.4626 11.03L10.4626 13.48C10.4626 13.9355 10.2904 14.3747 9.98018 14.7005Z" fill="#5559DF"/>
</svg>
