<?xml version="1.0" encoding="UTF-8"?>
<svg width="88px" height="88px" viewBox="0 0 88 88" version="1.1" xmlns="http://www.w3.org/2000/svg" xmlns:xlink="http://www.w3.org/1999/xlink">
    <!-- Generator: Sketch 50.2 (55047) - http://www.bohemiancoding.com/sketch -->
    <title>formula</title>
    <desc>Created with Sketch.</desc>
    <defs></defs>
    <g id="formula" stroke="none" stroke-width="1" fill="none" fill-rule="evenodd">
        <g id="Functionicon" transform="translate(26.000000, 19.000000)" fill="#FFFFFF" fill-rule="nonzero">
            <path d="M16.0757607,18.5523128 L22.116079,18.5523128 C22.6683638,18.5523128 23.116079,19.000028 23.116079,19.5523128 L23.116079,21.3023128 C23.116079,21.8545975 22.6683638,22.3023128 22.116079,22.3023128 L15.145311,22.3023128 C14.8413532,23.5775584 14.5530255,24.8414633 14.2803243,26.0940275 C13.0276014,31.8480032 11.4739343,37.7538906 9.61953224,43.8118271 C8.83548726,46.3731338 6.08199432,48.5623315 1.35905342,50.3794201 L1.35904471,50.3793974 C0.843605621,50.5777057 0.264999027,50.3206205 0.066690708,49.8051814 C0.0226071942,49.6906004 2.19839194e-13,49.5688811 2.19824159e-13,49.4461124 L-4.41122076e-06,47.827668 C-4.41122076e-06,47.410233 0.259289665,47.0367135 0.650381511,46.8907712 C3.73989058,45.73787 5.53435379,44.3456747 6.03377117,42.7141853 C7.85845517,36.7533315 9.38584803,30.9473191 10.6161588,25.2962862 C10.8319688,24.3050331 11.0573279,23.3070425 11.292235,22.3023128 L4.14699471,22.3023128 C3.59470996,22.3023128 3.14699471,21.8545975 3.14699471,21.3023128 L3.14699471,19.5523128 C3.14699471,19.000028 3.59470996,18.5523128 4.14699471,18.5523128 L12.2054003,18.5523128 C13.1167161,14.9511479 14.1467086,11.2661806 15.2953241,7.4973399 C16.6302774,3.11708653 20.7081727,0.125000748 25.3261465,0.125000269 L27.3274599,0.124999976 C27.8797447,0.124999927 28.32746,0.572715137 28.32746,1.12499989 L28.3274598,2.875 C28.3274598,3.42728471 27.8797446,3.87499993 27.3274599,3.87499998 L25.3261469,3.87500027 C22.3513754,3.87500058 19.7343726,5.79518153 18.8824328,8.59056957 C17.8487698,11.9822276 16.9132261,15.3028267 16.0757607,18.5523128 Z" id="Combined-Shape"></path>
            <path d="M20.0688545,29.2324991 L21.4714756,28.1860031 C21.9141307,27.8557381 22.5407061,27.9468482 22.8709712,28.3895032 L36.3314635,46.4306344 C36.6617285,46.8732894 36.5706184,47.4998649 36.1279634,47.8301299 L34.7253422,48.8766259 C34.2826872,49.2068909 33.6561117,49.1157808 33.3258467,48.6731258 L19.8653544,30.6319946 C19.5350894,30.1893396 19.6261995,29.5627641 20.0688545,29.2324991 Z" id="Path-4"></path>
            <path d="M20.0688543,29.2324991 L21.4714754,28.1860031 C21.9141304,27.8557381 22.5407059,27.9468482 22.870971,28.3895032 L36.3314633,46.4306344 C36.6617283,46.8732894 36.5706182,47.4998649 36.1279632,47.8301299 L34.725342,48.8766259 C34.282687,49.2068909 33.6561115,49.1157808 33.3258465,48.6731258 L19.8653542,30.6319946 C19.5350891,30.1893396 19.6261992,29.5627641 20.0688543,29.2324991 Z" id="Path-4-Copy" transform="translate(28.098409, 38.531315) scale(-1, 1) translate(-28.098409, -38.531315) "></path>
        </g>
    </g>
</svg>