<?xml version="1.0" encoding="UTF-8"?>
<svg width="88px" height="88px" viewBox="0 0 88 88" version="1.1" xmlns="http://www.w3.org/2000/svg" xmlns:xlink="http://www.w3.org/1999/xlink">
    <!-- Generator: Sketch 50.2 (55047) - http://www.bohemiancoding.com/sketch -->
    <title>long text</title>
    <desc>Created with Sketch.</desc>
    <defs></defs>
    <g id="long-text" stroke="none" stroke-width="1" fill="none" fill-rule="evenodd">
        <g id="Group-2" transform="translate(22.000000, 25.000000)" fill="#FFFFFF">
            <path d="M43.0833333,0 L0.916666667,0 C0.410666667,0 0,0.410655026 0,0.916640683 L0,30.2491425 C0,30.7551282 0.410666667,31.1657832 0.916666667,31.1657832 L12.8333333,31.1657832 L12.8333333,37.582268 C12.8333333,38.3962449 13.8233333,38.8069 14.3971667,38.2312496 L21.4628333,31.1657832 L43.0833333,31.1657832 C43.5893333,31.1657832 44,30.7551282 44,30.2491425 L44,0.916640683 C44,0.410655026 43.5893333,0 43.0833333,0 Z" id="Shape" fill-rule="nonzero" opacity="0.4" transform="translate(22.000000, 19.250000) scale(1, -1) translate(-22.000000, -19.250000) "></path>
            <g id="Group" transform="translate(6.000000, 16.000000)">
                <rect id="Rectangle-28" x="0" y="0" width="32" height="3"></rect>
                <rect id="Rectangle-28-Copy" x="0" y="5" width="32" height="3"></rect>
                <rect id="Rectangle-28-Copy-2" x="0" y="10" width="18" height="3"></rect>
            </g>
        </g>
    </g>
</svg>