<?xml version="1.0" encoding="UTF-8"?>
<svg width="88px" height="88px" viewBox="0 0 88 88" version="1.1" xmlns="http://www.w3.org/2000/svg" xmlns:xlink="http://www.w3.org/1999/xlink">
    <!-- Generator: Sketch 50.2 (55047) - http://www.bohemiancoding.com/sketch -->
    <title>tags</title>
    <desc>Created with Sketch.</desc>
    <defs></defs>
    <g id="tags" stroke="none" stroke-width="1" fill="none" fill-rule="evenodd">
        <path d="M66.0416667,35.6704831 L54.7832083,35.6704831 L57.2174167,22.3146497 C57.41325,21.2473581 56.7062917,20.2309831 55.6429167,20.0351497 C54.587375,19.8295247 53.5612083,20.5482331 53.365375,21.6116081 L50.8019167,35.6724414 L41.0729167,35.6724414 L43.507125,22.3166081 C43.7029583,21.2493164 42.996,20.2329414 41.932625,20.0371081 C40.8731667,19.8314831 39.8489583,20.5501914 39.6550833,21.6135664 L37.091625,35.6743997 L26.875,35.6743997 C25.7920417,35.6743997 24.9166667,36.5497747 24.9166667,37.6327331 C24.9166667,38.7156914 25.7920417,39.5910664 26.875,39.5910664 L36.3787917,39.5910664 L34.59475,49.3827331 L22.9583333,49.3827331 C21.875375,49.3827331 21,50.2581081 21,51.3410664 C21,52.4240247 21.875375,53.2993997 22.9583333,53.2993997 L33.8819167,53.2993997 L31.8021667,64.6968997 C31.6063333,65.7622331 32.3132917,66.7805664 33.3766667,66.9724831 C34.40675,67.1702747 35.4564167,66.4868164 35.6542083,65.3999414 L37.86125,53.2974414 L47.59025,53.2974414 L45.5105,64.6949414 C45.3146667,65.7602747 46.021625,66.7786081 47.085,66.9705247 C48.1150833,67.1683164 49.16475,66.4848581 49.3625417,65.3979831 L51.5695833,53.2954831 L62.125,53.2954831 C63.2079583,53.2954831 64.0833333,52.4201081 64.0833333,51.3371497 C64.0833333,50.2541914 63.2079583,49.3788164 62.125,49.3788164 L52.284375,49.3788164 L54.0684167,39.5871497 L66.0416667,39.5871497 C67.124625,39.5871497 68,38.7117747 68,37.6288164 C68,36.5458581 67.124625,35.6704831 66.0416667,35.6704831 Z M48.3030833,49.3788164 L38.5760417,49.3788164 L40.3600833,39.5871497 L50.0890833,39.5871497 L48.3030833,49.3788164 Z" id="Shape" fill="#FFFFFF" fill-rule="nonzero"></path>
    </g>
</svg>