<?xml version="1.0" encoding="UTF-8"?>
<svg width="88px" height="88px" viewBox="0 0 88 88" version="1.1" xmlns="http://www.w3.org/2000/svg" xmlns:xlink="http://www.w3.org/1999/xlink">
    <!-- Generator: Sketch 50.2 (55047) - http://www.bohemiancoding.com/sketch -->
    <title>timeline</title>
    <desc>Created with Sketch.</desc>
    <defs></defs>
    <g id="timeline" stroke="none" stroke-width="1" fill="none" fill-rule="evenodd">
        <g id="Group" transform="translate(21.000000, 22.000000)" fill="#FFFFFF">
            <path d="M29.9788063,33.9657751 C31.9150647,33.9307615 33.7203389,34.885154 34.6993417,36.4613756 C35.6783444,38.0375973 35.6783444,39.9897465 34.6993417,41.5659681 C33.7203389,43.1421898 31.9150647,44.0965822 29.9788063,44.0615686 L8.57588119,44.0615686 C6.63962283,44.0965822 4.8343486,43.1421898 3.85534583,41.5659681 C2.87634306,39.9897465 2.87634306,38.0375973 3.85534583,36.4613756 C4.8343486,34.885154 6.63962283,33.9307615 8.57588119,33.9657751 L29.9788063,33.9657751 Z M32.7346654,10.0976562 L5.0856471,10.0976562 C2.26129115,10.0449266 -3.38370808e-16,7.80000672 0,5.04882812 C3.38370808e-16,2.29764953 2.26129115,0.0527296367 5.0856471,0 L32.7346654,0 C35.5590214,0.0527296367 37.8203125,2.29764953 37.8203125,5.04882813 C37.8203125,7.80000672 35.5590214,10.0449266 32.7346654,10.0976562 Z" id="Combined-Shape" fill-rule="nonzero"></path>
            <path d="M41.9143529,16.7070313 L14.2653346,16.7070313 C11.4409786,16.7597609 9.1796875,19.0046808 9.1796875,21.7558594 C9.1796875,24.507038 11.4409786,26.7519579 14.2653346,26.8046875 L41.9143529,26.8046875 C44.7387089,26.7519579 47,24.507038 47,21.7558594 C47,19.0046808 44.7387089,16.7597609 41.9143529,16.7070312 Z" id="Shape" opacity="0.4"></path>
        </g>
    </g>
</svg>